Exo-Demibold.ufo
<glyph name="G" format="1">
  <advance width="661"/>
  <unicode hex="0047"/>
  <note>
    GF Latin Plus glyph
  </note>
  <outline>
    <contour>
      <point x="50" y="370" type="curve" smooth="yes"/>
      <point x="50" y="132"/>
      <point x="95" y="-6"/>
      <point x="281" y="-5" type="curve" smooth="yes"/>
      <point x="365" y="-5"/>
      <point x="441" y="27"/>
      <point x="483" y="51" type="curve"/>
      <point x="500" y="0" type="line"/>
      <point x="593" y="0" type="line"/>
      <point x="593" y="409" type="line"/>
      <point x="567" y="411"/>
      <point x="534" y="412"/>
      <point x="494" y="412" type="curve" smooth="yes"/>
      <point x="435" y="412"/>
      <point x="365" y="408"/>
      <point x="325" y="402" type="curve"/>
      <point x="325" y="306" type="line"/>
      <point x="474" y="306" type="line"/>
      <point x="474" y="136" type="line"/>
      <point x="437" y="123"/>
      <point x="378" y="109"/>
      <point x="319" y="109" type="curve" smooth="yes"/>
      <point x="207" y="109"/>
      <point x="174" y="162"/>
      <point x="174" y="369" type="curve" smooth="yes"/>
      <point x="174" y="565"/>
      <point x="203" y="634"/>
      <point x="336" y="634" type="curve" smooth="yes"/>
      <point x="427" y="634"/>
      <point x="518" y="626"/>
      <point x="560" y="620" type="curve"/>
      <point x="560" y="715" type="line"/>
      <point x="486" y="733"/>
      <point x="408" y="745"/>
      <point x="315" y="745" type="curve" smooth="yes"/>
      <point x="100" y="745"/>
      <point x="50" y="611"/>
    </contour>
    <contour>
      <point x="326" y="810" type="move" name="top"/>
    </contour>
    <contour>
      <point x="348" y="-150" type="move" name="bottom"/>
    </contour>
  </outline>
</glyph>
<glyph name="V" format="1">
  <advance width="681"/>
  <unicode hex="0056"/>
  <note>
    GF Latin Plus glyph
  </note>
  <outline>
    <contour>
      <point x="23" y="738" type="line"/>
      <point x="263" y="0" type="line"/>
      <point x="419" y="0" type="line"/>
      <point x="659" y="738" type="line"/>
      <point x="531" y="738" type="line"/>
      <point x="341" y="133" type="line"/>
      <point x="151" y="738" type="line"/>
    </contour>
  </outline>
</glyph>
<glyph name="m" format="1">
  <advance width="937"/>
  <unicode hex="006D"/>
  <note>
    GF Latin Plus glyph
  </note>
  <outline>
    <contour>
      <point x="63" y="0" type="line"/>
      <point x="187" y="0" type="line"/>
      <point x="187" y="389" type="line"/>
      <point x="228" y="416"/>
      <point x="267" y="433"/>
      <point x="319" y="433" type="curve" smooth="yes"/>
      <point x="374" y="433"/>
      <point x="408" y="399"/>
      <point x="408" y="342" type="curve" smooth="yes"/>
      <point x="408" y="0" type="line"/>
      <point x="532" y="0" type="line"/>
      <point x="532" y="339" type="line" smooth="yes"/>
      <point x="532" y="356"/>
      <point x="530" y="371"/>
      <point x="525" y="385" type="curve"/>
      <point x="565" y="412"/>
      <point x="616" y="433"/>
      <point x="664" y="433" type="curve" smooth="yes"/>
      <point x="719" y="433"/>
      <point x="753" y="399"/>
      <point x="753" y="342" type="curve" smooth="yes"/>
      <point x="753" y="0" type="line"/>
      <point x="877" y="0" type="line"/>
      <point x="877" y="352" type="line" smooth="yes"/>
      <point x="877" y="466"/>
      <point x="832" y="545"/>
      <point x="708" y="545" type="curve" smooth="yes"/>
      <point x="636" y="545"/>
      <point x="557" y="503"/>
      <point x="510" y="468" type="curve"/>
      <point x="486" y="512"/>
      <point x="441" y="545"/>
      <point x="374" y="545" type="curve" smooth="yes"/>
      <point x="293" y="545"/>
      <point x="236" y="515"/>
      <point x="187" y="480" type="curve"/>
      <point x="164" y="536" type="line"/>
      <point x="63" y="536" type="line"/>
    </contour>
    <contour>
      <point x="481" y="650" type="move" name="top"/>
    </contour>
    <contour>
      <point x="469" y="-150" type="move" name="bottom"/>
    </contour>
  </outline>
</glyph>
<glyph name="u" format="1">
  <advance width="593"/>
  <unicode hex="0075"/>
  <note>
    GF Latin Plus glyph
  </note>
  <outline>
    <contour>
      <point x="62" y="157" type="line" smooth="yes"/>
      <point x="62" y="51"/>
      <point x="119" y="-6"/>
      <point x="218" y="-6" type="curve" smooth="yes"/>
      <point x="290" y="-6"/>
      <point x="356" y="23"/>
      <point x="407" y="56" type="curve"/>
      <point x="430" y="0" type="line"/>
      <point x="531" y="0" type="line"/>
      <point x="531" y="536" type="line"/>
      <point x="407" y="536" type="line"/>
      <point x="407" y="146" type="line"/>
      <point x="368" y="119"/>
      <point x="323" y="104"/>
      <point x="277" y="104" type="curve" smooth="yes"/>
      <point x="220" y="104"/>
      <point x="186" y="122"/>
      <point x="186" y="193" type="curve" smooth="yes"/>
      <point x="186" y="536" type="line"/>
      <point x="62" y="536" type="line"/>
    </contour>
    <contour>
      <point x="291" y="650" type="move" name="top"/>
    </contour>
    <contour>
      <point x="521" y="0" type="move" name="ogonek"/>
    </contour>
    <contour>
      <point x="291" y="-150" type="move" name="bottom"/>
    </contour>
  </outline>
</glyph>
<glyph name="cent" format="1">
  <advance width="486"/>
  <unicode hex="00A2"/>
  <note>
    GF Latin Plus glyph
  </note>
  <outline>
    <contour>
      <point x="35" y="266" type="curve" smooth="yes"/>
      <point x="35" y="48"/>
      <point x="120" y="-4"/>
      <point x="228" y="-5" type="curve"/>
      <point x="228" y="-90" type="line"/>
      <point x="299" y="-90" type="line"/>
      <point x="299" y="-5" type="line"/>
      <point x="353" y="-4"/>
      <point x="398" y="6"/>
      <point x="450" y="29" type="curve"/>
      <point x="450" y="103" type="line"/>
      <point x="422" y="97"/>
      <point x="367" y="89"/>
      <point x="281" y="89" type="curve" smooth="yes"/>
      <point x="197" y="89"/>
      <point x="159" y="118"/>
      <point x="159" y="263" type="curve" smooth="yes"/>
      <point x="159" y="417"/>
      <point x="197" y="442"/>
      <point x="279" y="442" type="curve" smooth="yes"/>
      <point x="362" y="442"/>
      <point x="421" y="436"/>
      <point x="444" y="431" type="curve"/>
      <point x="444" y="504" type="line"/>
      <point x="397" y="520"/>
      <point x="345" y="531"/>
      <point x="302" y="534" type="curve"/>
      <point x="302" y="627" type="line"/>
      <point x="231" y="627" type="line"/>
      <point x="231" y="536" type="line"/>
      <point x="116" y="536"/>
      <point x="35" y="486"/>
    </contour>
  </outline>
</glyph>
<glyph name="sterling" format="1">
  <advance width="609"/>
  <unicode hex="00A3"/>
  <note>
    GF Latin Plus glyph
  </note>
  <outline>
    <contour>
      <point x="60" y="0" type="line"/>
      <point x="554" y="0" type="line"/>
      <point x="554" y="111" type="line"/>
      <point x="282" y="111" type="line"/>
      <point x="282" y="322" type="line"/>
      <point x="476" y="331" type="line"/>
      <point x="476" y="399" type="line"/>
      <point x="282" y="411" type="line"/>
      <point x="282" y="517" type="line" smooth="yes"/>
      <point x="282" y="610"/>
      <point x="318" y="631"/>
      <point x="395" y="631" type="curve" smooth="yes"/>
      <point x="547" y="631" type="line"/>
      <point x="547" y="730" type="line"/>
      <point x="511" y="735"/>
      <point x="452" y="742"/>
      <point x="389" y="742" type="curve" smooth="yes"/>
      <point x="235" y="742"/>
      <point x="158" y="682"/>
      <point x="158" y="504" type="curve" smooth="yes"/>
      <point x="158" y="411" type="line"/>
      <point x="60" y="393" type="line"/>
      <point x="60" y="331" type="line"/>
      <point x="158" y="322" type="line"/>
      <point x="158" y="111" type="line"/>
      <point x="60" y="94" type="line"/>
    </contour>
  </outline>
</glyph>
<glyph name="breve" format="1">
  <advance width="353"/>
  <unicode hex="02D8"/>
  <note>
    GF Latin Plus glyph
  </note>
  <outline>
    <contour>
      <point x="40" y="773" type="line"/>
      <point x="40" y="668"/>
      <point x="96" y="625"/>
      <point x="176" y="625" type="curve" smooth="yes"/>
      <point x="258" y="625"/>
      <point x="314" y="667"/>
      <point x="314" y="773" type="curve"/>
      <point x="255" y="773" type="line"/>
      <point x="255" y="705"/>
      <point x="222" y="683"/>
      <point x="176" y="682" type="curve" smooth="yes"/>
      <point x="136" y="682"/>
      <point x="98" y="705"/>
      <point x="98" y="773" type="curve"/>
    </contour>
  </outline>
</glyph>
<glyph name="bullet" format="1">
  <advance width="313"/>
  <unicode hex="2022"/>
  <note>
    GF Latin Plus glyph
  </note>
  <outline>
    <contour>
      <point x="76" y="331" type="line" smooth="yes"/>
      <point x="76" y="311"/>
      <point x="89" y="299"/>
      <point x="109" y="299" type="curve" smooth="yes"/>
      <point x="203" y="299" type="line" smooth="yes"/>
      <point x="223" y="299"/>
      <point x="238" y="307"/>
      <point x="238" y="331" type="curve" smooth="yes"/>
      <point x="238" y="431" type="line" smooth="yes"/>
      <point x="238" y="453"/>
      <point x="228" y="466"/>
      <point x="203" y="466" type="curve" smooth="yes"/>
      <point x="109" y="466" type="line" smooth="yes"/>
      <point x="87" y="466"/>
      <point x="76" y="452"/>
      <point x="76" y="431" type="curve" smooth="yes"/>
    </contour>
  </outline>
</glyph>
<glyph name="franc" format="1">
  <advance width="609"/>
  <unicode hex="20A3"/>
  <note>
    GF Latin Plus glyph
  </note>
  <outline>
    <contour>
      <point x="139" y="0" type="line"/>
      <point x="262" y="0" type="line"/>
      <point x="262" y="335" type="line"/>
      <point x="497" y="342" type="line"/>
      <point x="497" y="439" type="line"/>
      <point x="262" y="446" type="line"/>
      <point x="262" y="555" type="line" smooth="yes"/>
      <point x="262" y="598"/>
      <point x="287" y="624"/>
      <point x="332" y="624" type="curve" smooth="yes"/>
      <point x="543" y="624" type="line"/>
      <point x="543" y="727" type="line"/>
      <point x="490" y="734"/>
      <point x="326" y="738"/>
      <point x="299" y="738" type="curve" smooth="yes"/>
      <point x="224" y="739"/>
      <point x="139" y="704"/>
      <point x="139" y="583" type="curve" smooth="yes"/>
    </contour>
    <contour>
      <point x="59" y="128" type="line"/>
      <point x="139" y="121" type="line"/>
      <point x="262" y="121" type="line"/>
      <point x="482" y="128" type="line"/>
      <point x="482" y="214" type="line"/>
      <point x="262" y="221" type="line"/>
      <point x="139" y="221" type="line"/>
      <point x="59" y="214" type="line"/>
    </contour>
  </outline>
</glyph>
<glyph name="f_f" format="1">
  <advance width="782"/>
  <unicode hex="FB00"/>
  <note>
    GF Latin Plus glyph
  </note>
  <outline>
    <contour>
      <point x="14" y="436" type="line"/>
      <point x="92" y="436" type="line"/>
      <point x="92" y="0" type="line"/>
      <point x="216" y="0" type="line"/>
      <point x="216" y="436" type="line"/>
      <point x="550" y="436" type="line"/>
      <point x="550" y="536" type="line"/>
      <point x="216" y="536" type="line"/>
      <point x="216" y="581" type="line" smooth="yes"/>
      <point x="216" y="639"/>
      <point x="232" y="668"/>
      <point x="291" y="668" type="curve" smooth="yes"/>
      <point x="319" y="668"/>
      <point x="353" y="666"/>
      <point x="376" y="664" type="curve"/>
      <point x="376" y="753" type="line"/>
      <point x="348" y="762"/>
      <point x="303" y="769"/>
      <point x="250" y="769" type="curve" smooth="yes"/>
      <point x="139" y="769"/>
      <point x="92" y="723"/>
      <point x="92" y="598" type="curve" smooth="yes"/>
      <point x="92" y="536" type="line"/>
      <point x="14" y="516" type="line"/>
    </contour>
    <component base="f" xOffset="391"/>
  </outline>
</glyph>
<glyph name="F.smcp" format="1">
  <advance width="491"/>
  <outline>
    <contour>
      <point x="63" y="0" type="line"/>
      <point x="181" y="0" type="line"/>
      <point x="181" y="215" type="line"/>
      <point x="417" y="221" type="line"/>
      <point x="417" y="304" type="line"/>
      <point x="181" y="310" type="line"/>
      <point x="181" y="418" type="line" smooth="yes"/>
      <point x="181" y="445"/>
      <point x="198" y="464"/>
      <point x="231" y="464" type="curve" smooth="yes"/>
      <point x="455" y="464" type="line"/>
      <point x="455" y="550" type="line"/>
      <point x="387" y="559"/>
      <point x="234" y="560"/>
      <point x="199" y="560" type="curve" smooth="yes"/>
      <point x="136" y="560"/>
      <point x="63" y="533"/>
      <point x="63" y="437" type="curve" smooth="yes"/>
    </contour>
    <contour>
      <point x="263" y="650" type="move" name="top"/>
    </contour>
  </outline>
</glyph>
<glyph name="K.smcp" format="1">
  <advance width="541"/>
  <outline>
    <contour>
      <point x="63" y="0" type="line"/>
      <point x="181" y="0" type="line"/>
      <point x="181" y="228" type="line"/>
      <point x="260" y="228" type="line"/>
      <point x="388" y="0" type="line"/>
      <point x="513" y="0" type="line"/>
      <point x="354" y="279" type="line"/>
      <point x="509" y="560" type="line"/>
      <point x="383" y="560" type="line"/>
      <point x="261" y="328" type="line"/>
      <point x="181" y="328" type="line"/>
      <point x="181" y="560" type="line"/>
      <point x="63" y="560" type="line"/>
    </contour>
    <contour>
      <point x="269" y="650" type="move" name="top"/>
    </contour>
    <contour>
      <point x="269" y="-150" type="move" name="bottom"/>
    </contour>
  </outline>
</glyph>
<glyph name="M.salt.smcp" format="1">
  <advance width="729"/>
  <outline>
    <contour>
      <point x="47" y="0" type="line"/>
      <point x="161" y="0" type="line"/>
      <point x="187" y="435" type="line" smooth="yes"/>
      <point x="188" y="451"/>
      <point x="198" y="459"/>
      <point x="207" y="459" type="curve" smooth="yes"/>
      <point x="215" y="459"/>
      <point x="222" y="453"/>
      <point x="226" y="440" type="curve" smooth="yes"/>
      <point x="276" y="193" type="line" smooth="yes"/>
      <point x="283" y="136"/>
      <point x="331" y="114"/>
      <point x="372" y="114" type="curve" smooth="yes"/>
      <point x="414" y="114"/>
      <point x="455" y="135"/>
      <point x="464" y="193" type="curve" smooth="yes"/>
      <point x="514" y="439" type="line" smooth="yes"/>
      <point x="518" y="454"/>
      <point x="525" y="460"/>
      <point x="532" y="460" type="curve" smooth="yes"/>
      <point x="539" y="460"/>
      <point x="545" y="452"/>
      <point x="546" y="437" type="curve" smooth="yes"/>
      <point x="575" y="0" type="line"/>
      <point x="689" y="0" type="line"/>
      <point x="658" y="462" type="line" smooth="yes"/>
      <point x="654" y="544"/>
      <point x="599" y="570"/>
      <point x="547" y="570" type="curve" smooth="yes"/>
      <point x="493" y="570"/>
      <point x="436" y="551"/>
      <point x="429" y="468" type="curve" smooth="yes"/>
      <point x="390" y="278" type="line" smooth="yes"/>
      <point x="388" y="264"/>
      <point x="381" y="259"/>
      <point x="372" y="259" type="curve" smooth="yes"/>
      <point x="364" y="259"/>
      <point x="357" y="263"/>
      <point x="355" y="278" type="curve" smooth="yes"/>
      <point x="314" y="470" type="line" smooth="yes"/>
      <point x="308" y="551"/>
      <point x="248" y="571"/>
      <point x="192" y="571" type="curve" smooth="yes"/>
      <point x="138" y="571"/>
      <point x="81" y="544"/>
      <point x="76" y="460" type="curve" smooth="yes"/>
    </contour>
    <contour>
      <point x="377" y="650" type="move" name="top"/>
    </contour>
    <contour>
      <point x="365" y="-150" type="move" name="bottom"/>
    </contour>
  </outline>
</glyph>
<glyph name="at.smcp" format="1">
  <advance width="732"/>
  <outline>
    <contour>
      <point x="295" y="201" type="curve" smooth="yes"/>
      <point x="295" y="218" type="line" smooth="yes"/>
      <point x="295" y="248"/>
      <point x="321" y="252"/>
      <point x="340" y="253" type="curve" smooth="yes"/>
      <point x="431" y="258" type="line"/>
      <point x="431" y="197" type="line"/>
      <point x="412" y="181"/>
      <point x="370" y="164"/>
      <point x="340" y="164" type="curve" smooth="yes"/>
      <point x="313" y="164"/>
      <point x="295" y="178"/>
    </contour>
    <contour>
      <point x="53" y="99" type="line" smooth="yes"/>
      <point x="53" y="-25"/>
      <point x="135" y="-69"/>
      <point x="228" y="-69" type="curve" smooth="yes"/>
      <point x="490" y="-69" type="line" smooth="yes"/>
      <point x="606" y="-69"/>
      <point x="667" y="-14"/>
      <point x="667" y="110" type="curve" smooth="yes"/>
      <point x="667" y="442" type="line" smooth="yes"/>
      <point x="667" y="580"/>
      <point x="569" y="632"/>
      <point x="478" y="632" type="curve" smooth="yes"/>
      <point x="406" y="632" type="line" smooth="yes"/>
      <point x="305" y="632"/>
      <point x="196" y="622"/>
      <point x="158" y="615" type="curve"/>
      <point x="158" y="548" type="line"/>
      <point x="478" y="548" type="line" smooth="yes"/>
      <point x="537" y="548"/>
      <point x="578" y="504"/>
      <point x="578" y="442" type="curve" smooth="yes"/>
      <point x="578" y="110" type="line" smooth="yes"/>
      <point x="578" y="51"/>
      <point x="555" y="16"/>
      <point x="484" y="16" type="curve" smooth="yes"/>
      <point x="228" y="16" type="line" smooth="yes"/>
      <point x="190" y="16"/>
      <point x="142" y="36"/>
      <point x="142" y="110" type="curve" smooth="yes"/>
      <point x="142" y="312" type="line" smooth="yes"/>
      <point x="142" y="378"/>
      <point x="182" y="391"/>
      <point x="228" y="391" type="curve" smooth="yes"/>
      <point x="375" y="391" type="line" smooth="yes"/>
      <point x="411" y="391"/>
      <point x="431" y="381"/>
      <point x="431" y="346" type="curve" smooth="yes"/>
      <point x="431" y="311" type="line"/>
      <point x="321" y="311" type="line" smooth="yes"/>
      <point x="245" y="311"/>
      <point x="200" y="283"/>
      <point x="200" y="215" type="curve" smooth="yes"/>
      <point x="200" y="186" type="line" smooth="yes"/>
      <point x="200" y="134"/>
      <point x="232" y="81"/>
      <point x="303" y="81" type="curve" smooth="yes"/>
      <point x="376" y="81"/>
      <point x="430" y="131"/>
      <point x="432" y="131" type="curve"/>
      <point x="447" y="88" type="line"/>
      <point x="519" y="88" type="line"/>
      <point x="519" y="353" type="line" smooth="yes"/>
      <point x="519" y="462"/>
      <point x="445" y="475"/>
      <point x="373" y="475" type="curve" smooth="yes"/>
      <point x="228" y="475" type="line" smooth="yes"/>
      <point x="89" y="475"/>
      <point x="53" y="395"/>
      <point x="53" y="319" type="curve" smooth="yes"/>
    </contour>
  </outline>
</glyph>
<glyph name="braceright.smcp" format="1">
  <advance width="279"/>
  <outline>
    <contour>
      <point x="24" y="-43" type="curve"/>
      <point x="24" y="-127" type="line"/>
      <point x="160" y="-127"/>
      <point x="200" y="-81"/>
      <point x="200" y="3" type="curve" smooth="yes"/>
      <point x="200" y="188" type="line" smooth="yes"/>
      <point x="200" y="217"/>
      <point x="222" y="235"/>
      <point x="254" y="233" type="curve"/>
      <point x="254" y="335" type="line"/>
      <point x="227" y="338"/>
      <point x="199" y="347"/>
      <point x="199" y="380" type="curve" smooth="yes"/>
      <point x="199" y="528" type="line" smooth="yes"/>
      <point x="199" y="614"/>
      <point x="149" y="669"/>
      <point x="24" y="669" type="curve"/>
      <point x="24" y="580" type="line"/>
      <point x="68" y="580"/>
      <point x="81" y="560"/>
      <point x="81" y="485" type="curve" smooth="yes"/>
      <point x="81" y="361" type="line" smooth="yes"/>
      <point x="81" y="310"/>
      <point x="112" y="289"/>
      <point x="160" y="284" type="curve"/>
      <point x="112" y="276"/>
      <point x="82" y="251"/>
      <point x="82" y="210" type="curve" smooth="yes"/>
      <point x="82" y="42" type="line" smooth="yes"/>
      <point x="82" y="-18"/>
      <point x="71" y="-43"/>
    </contour>
  </outline>
</glyph>
<glyph name="f.superior" format="1">
  <advance width="292"/>
  <outline>
    <contour>
      <point x="14" y="587" type="line"/>
      <point x="70" y="587" type="line"/>
      <point x="70" y="280" type="line"/>
      <point x="179" y="280" type="line"/>
      <point x="179" y="587" type="line"/>
      <point x="282" y="587" type="line"/>
      <point x="282" y="672" type="line"/>
      <point x="179" y="672" type="line"/>
      <point x="179" y="718" type="line" smooth="yes"/>
      <point x="179" y="754"/>
      <point x="190" y="770"/>
      <point x="224" y="770" type="curve" smooth="yes"/>
      <point x="285" y="770" type="line"/>
      <point x="285" y="845" type="line"/>
      <point x="267" y="849"/>
      <point x="237" y="855"/>
      <point x="203" y="855" type="curve" smooth="yes"/>
      <point x="108" y="855"/>
      <point x="70" y="812"/>
      <point x="70" y="713" type="curve" smooth="yes"/>
      <point x="70" y="672" type="line"/>
      <point x="14" y="655" type="line"/>
    </contour>
  </outline>
</glyph>
<glyph name="four.oldstyle" format="1">
  <advance width="597"/>
  <outline>
    <contour>
      <point x="43" y="74" type="line"/>
      <point x="68" y="12" type="line"/>
      <point x="390" y="12" type="line"/>
      <point x="390" y="-176" type="line"/>
      <point x="514" y="-176" type="line"/>
      <point x="514" y="12" type="line"/>
      <point x="587" y="34" type="line"/>
      <point x="587" y="118" type="line"/>
      <point x="514" y="118" type="line"/>
      <point x="514" y="345" type="line"/>
      <point x="416" y="345" type="line"/>
      <point x="390" y="246" type="line"/>
      <point x="390" y="118" type="line"/>
      <point x="189" y="118" type="line"/>
      <point x="364" y="539" type="line"/>
      <point x="238" y="539" type="line"/>
    </contour>
  </outline>
</glyph>
<glyph name="jdotless" format="1">
  <advance width="251"/>
  <note>
    GF Latin Plus glyph
  </note>
  <outline>
    <contour>
      <point x="63" y="-237" type="line"/>
      <point x="157" y="-237" type="line"/>
      <point x="175" y="-175"/>
      <point x="187" y="-79"/>
      <point x="187" y="9" type="curve" smooth="yes"/>
      <point x="187" y="536" type="line"/>
      <point x="63" y="536" type="line"/>
    </contour>
    <contour>
      <point x="125" y="650" type="move" name="top"/>
    </contour>
  </outline>
</glyph>
<glyph name="lira.smcp" format="1">
  <advance width="513"/>
  <outline>
    <contour>
      <point x="59" y="0" type="line"/>
      <point x="460" y="0" type="line"/>
      <point x="460" y="100" type="line"/>
      <point x="251" y="100" type="line"/>
      <point x="251" y="182" type="line"/>
      <point x="397" y="184" type="line"/>
      <point x="397" y="235" type="line"/>
      <point x="251" y="239" type="line"/>
      <point x="251" y="284" type="line"/>
      <point x="397" y="286" type="line"/>
      <point x="397" y="336" type="line"/>
      <point x="251" y="341" type="line"/>
      <point x="251" y="388" type="line" smooth="yes"/>
      <point x="251" y="449"/>
      <point x="276" y="464"/>
      <point x="332" y="464" type="curve" smooth="yes"/>
      <point x="457" y="464" type="line"/>
      <point x="457" y="553" type="line"/>
      <point x="427" y="558"/>
      <point x="380" y="563"/>
      <point x="326" y="563" type="curve" smooth="yes"/>
      <point x="194" y="563"/>
      <point x="133" y="516"/>
      <point x="133" y="387" type="curve" smooth="yes"/>
      <point x="133" y="341" type="line"/>
      <point x="59" y="336" type="line"/>
      <point x="59" y="286" type="line"/>
      <point x="133" y="284" type="line"/>
      <point x="133" y="244" type="line"/>
      <point x="60" y="239" type="line"/>
      <point x="60" y="190" type="line"/>
      <point x="133" y="187" type="line"/>
      <point x="133" y="100" type="line"/>
      <point x="59" y="85" type="line"/>
    </contour>
  </outline>
</glyph>
<glyph name="o.superior" format="1">
  <advance width="429"/>
  <outline>
    <contour>
      <point x="140" y="477" type="curve" smooth="yes"/>
      <point x="140" y="587"/>
      <point x="163" y="598"/>
      <point x="214" y="598" type="curve" smooth="yes"/>
      <point x="264" y="598"/>
      <point x="289" y="587"/>
      <point x="289" y="477" type="curve" smooth="yes"/>
      <point x="289" y="368"/>
      <point x="264" y="356"/>
      <point x="214" y="356" type="curve" smooth="yes"/>
      <point x="163" y="356"/>
      <point x="140" y="368"/>
    </contour>
    <contour>
      <point x="31" y="477" type="curve" smooth="yes"/>
      <point x="31" y="325"/>
      <point x="82" y="277"/>
      <point x="214" y="277" type="curve" smooth="yes"/>
      <point x="348" y="277"/>
      <point x="398" y="321"/>
      <point x="398" y="477" type="curve" smooth="yes"/>
      <point x="398" y="634"/>
      <point x="345" y="678"/>
      <point x="214" y="678" type="curve" smooth="yes"/>
      <point x="83" y="678"/>
      <point x="31" y="637"/>
    </contour>
    <contour>
      <point x="214" y="754" type="move" name="top"/>
    </contour>
    <contour>
      <point x="253" y="280" type="move" name="ogonek"/>
    </contour>
    <contour>
      <point x="214" y="170" type="move" name="bottom"/>
    </contour>
  </outline>
</glyph>
<glyph name="one.smcp" format="1">
  <advance width="323"/>
  <outline>
    <contour>
      <point x="37" y="445" type="line"/>
      <point x="142" y="464" type="line"/>
      <point x="142" y="0" type="line"/>
      <point x="260" y="0" type="line"/>
      <point x="260" y="565" type="line"/>
      <point x="155" y="565" type="line"/>
      <point x="37" y="517" type="line"/>
    </contour>
  </outline>
</glyph>
<glyph name="parenright.smcp" format="1">
  <advance width="333"/>
  <outline>
    <contour>
      <point x="24" y="-127" type="curve"/>
      <point x="130" y="-127" type="line"/>
      <point x="183" y="-71"/>
      <point x="275" y="68"/>
      <point x="275" y="277" type="curve" smooth="yes"/>
      <point x="275" y="487"/>
      <point x="187" y="626"/>
      <point x="130" y="683" type="curve"/>
      <point x="24" y="683" type="line"/>
      <point x="84" y="593"/>
      <point x="157" y="458"/>
      <point x="157" y="277" type="curve" smooth="yes"/>
      <point x="157" y="89"/>
      <point x="72" y="-55"/>
    </contour>
  </outline>
</glyph>
<glyph name="ringhalfleft" format="1">
  <advance width="204"/>
  <outline>
    <contour>
      <point x="179" y="637" type="line"/>
      <point x="124" y="637"/>
      <point x="98" y="653"/>
      <point x="98" y="697" type="curve" smooth="yes"/>
      <point x="98" y="742"/>
      <point x="124" y="758"/>
      <point x="179" y="758" type="curve"/>
      <point x="179" y="811" type="line"/>
      <point x="83" y="811"/>
      <point x="31" y="782"/>
      <point x="31" y="697" type="curve" smooth="yes"/>
      <point x="31" y="612"/>
      <point x="83" y="584"/>
      <point x="179" y="584" type="curve"/>
    </contour>
  </outline>
</glyph>
<glyph name="strokeshortcomb" format="1">
  <outline>
    <contour>
      <point x="-316" y="279" type="line"/>
      <point x="-22" y="279" type="line"/>
      <point x="-22" y="337" type="line"/>
      <point x="-316" y="337" type="line"/>
    </contour>
  </outline>
</glyph>
<glyph name="u.superior" format="1">
  <advance width="443"/>
  <outline>
    <contour>
      <point x="41" y="395" type="line" smooth="yes"/>
      <point x="41" y="319"/>
      <point x="83" y="276"/>
      <point x="156" y="276" type="curve" smooth="yes"/>
      <point x="208" y="276"/>
      <point x="255" y="297"/>
      <point x="292" y="320" type="curve"/>
      <point x="312" y="280" type="line"/>
      <point x="401" y="280" type="line"/>
      <point x="401" y="672" type="line"/>
      <point x="292" y="672" type="line"/>
      <point x="292" y="398" type="line"/>
      <point x="269" y="380"/>
      <point x="237" y="369"/>
      <point x="209" y="369" type="curve" smooth="yes"/>
      <point x="173" y="369"/>
      <point x="150" y="380"/>
      <point x="150" y="426" type="curve" smooth="yes"/>
      <point x="150" y="672" type="line"/>
      <point x="41" y="672" type="line"/>
    </contour>
    <contour>
      <point x="218" y="754" type="move" name="top"/>
    </contour>
    <contour>
      <point x="394" y="280" type="move" name="ogonek"/>
    </contour>
    <contour>
      <point x="218" y="170" type="move" name="bottom"/>
    </contour>
  </outline>
</glyph>
